# xmcd
#
# Track frame offsets:
#	150
#	17152
#	34205
#	51365
#	65002
#	78212
#	92472
#	105432
#	120722
#	137705
#	154167
#	169587
#	186415
#
# Disc length: 2700 seconds
#
# Revision: 0
# Processed by: cddbd v1.5.2PL0 Copyright (c) Steve Scherf et al.
# Submitted via: dBpowerAMP V4.0
#
DISCID=a80a8a0d
DTITLE=Varia - Way outta line
DYEAR=1900
DGENRE=
TTITLE0=Andy West - Cryin' season
TTITLE1=Riley Makem - Happy doin' what we're doin
TTITLE2=Clifton Pernot - The wanderer
TTITLE3=The Tex Pistols - Louisianna blues
TTITLE4=The Balham Alligators - Big bad dog
TTITLE5=Riley Makem - Deep in the heart of texas
TTITLE6=Riley Makem - Honky tonk man
TTITLE7=The Balham Alligators - Bayou teche
TTITLE8=Errol Walsh - One last time
TTITLE9=Chris Youlden - Better to have and don't need
TTITLE10=Doc Dockery - From the eyes of a faraway dancer
TTITLE11=Clifton Pernot - Always late
TTITLE12=Clifton Pernot - Bad feet
EXTD=
EXTT0=
EXTT1=
EXTT2=
EXTT3=
EXTT4=
EXTT5=
EXTT6=
EXTT7=
EXTT8=
EXTT9=
EXTT10=
EXTT11=
EXTT12=
PLAYORDER=
